<?xml version="1.0" encoding="UTF-8"?> <!-- Generator: Adobe Illustrator 21.0.0, SVG Export Plug-In . SVG Version: 6.00 Build 0) --> <svg xmlns="http://www.w3.org/2000/svg" xmlns:xlink="http://www.w3.org/1999/xlink" id="Capa_1" x="0px" y="0px" viewBox="0 0 512 512" style="enable-background:new 0 0 512 512;" xml:space="preserve" width="512" height="512"> <g> <g> <g> <g> <g> <g> <g> <g> <g> <g> <g> <g> <circle style="fill:#555A66;" cx="256" cy="256" r="256"></circle> </g> </g> </g> </g> </g> </g> </g> </g> </g> </g> </g> <path style="fill:#414952;" d="M512,256c0-8.135-0.397-16.175-1.139-24.116L369.977,91l-13.032,31.706L279.08,44.841L118,335 l67.854,67.854L147,432.157l77.966,77.966C235.14,511.353,245.494,512,256,512C397.385,512,512,397.385,512,256z"></path> <g> <polygon style="fill:#E09380;" points="365,432.157 325,432.157 293,318.953 333,318.953 "></polygon> </g> <g> <polygon style="fill:#FAA68E;" points="147,432.157 187,432.157 219,318.953 179,318.953 "></polygon> </g> <g> <rect x="142.023" y="91" style="fill:#FFFFFF;" width="227.953" height="227.953"></rect> </g> <g> <rect x="255.905" y="91" style="fill:#E9EDF5;" width="114.072" height="227.953"></rect> </g> <g> <rect x="232.921" y="44.841" style="fill:#FFBEAA;" width="46.159" height="46.159"></rect> </g> <g> <rect x="255.905" y="44.841" style="fill:#FAA68E;" width="23.175" height="46.159"></rect> </g> <g> <rect x="118" y="291" style="fill:#FFBEAA;" width="276" height="44"></rect> </g> <g> <rect x="255.905" y="291" style="fill:#FAA68E;" width="138.095" height="44"></rect> </g> <g> <path style="fill:#FF7045;" d="M187.816,246.399l-27.637-8.786c0.152-0.479,3.798-11.884,9.952-24.389 c9.356-19.01,19.397-30.522,30.696-35.192c8.291-3.426,16.887-3.043,24.861,1.104c5.546,2.884,10.912,6.235,16.101,9.475 c24.851,15.518,31.295,16.554,40.56,6.527c21.929-23.735,33.077-51.247,33.188-51.522l26.926,10.771 c-0.53,1.326-13.288,32.805-38.813,60.431c-12.178,13.18-26.569,18.147-42.771,14.764c-12.363-2.582-23.591-9.593-34.448-16.373 c-4.931-3.079-9.587-5.986-14.12-8.344c-0.097-0.05-0.172-0.084-0.227-0.107c-1.653,0.455-7.4,4.678-14.826,19.076 C191.455,235.085,187.853,246.287,187.816,246.399z"></path> </g> <g> <path style="fill:#DE4726;" d="M315.537,143.615c-0.11,0.275-11.259,27.788-33.188,51.522c-7.198,7.791-12.698,8.898-26.445,1.73 v31.423c1.639,0.502,3.295,0.941,4.974,1.291c16.202,3.383,30.594-1.584,42.771-14.764c25.524-27.627,38.282-59.105,38.813-60.431 L315.537,143.615z"></path> </g> </g> </svg> 