<?xml version="1.0" encoding="UTF-8"?> <svg xmlns="http://www.w3.org/2000/svg" height="512" viewBox="0 0 64 64" width="512"><g id="Fill_Outline" data-name="Fill Outline"><path d="m19 23h26a0 0 0 0 1 0 0v34a0 0 0 0 1 0 0h-23a3 3 0 0 1 -3-3v-31a0 0 0 0 1 0 0z" fill="#c4f236"></path><path d="m45 26v-3h-26v31a3 3 0 0 0 3 3h23v-5h-8a12 12 0 0 1 -12-12v-14z" fill="#a1d51c"></path><path d="m22 20h23a0 0 0 0 1 0 0v6a0 0 0 0 1 0 0h-23a3 3 0 0 1 -3-3 3 3 0 0 1 3-3z" fill="#d0d8da"></path><path d="m22 22h23a0 0 0 0 1 0 0v2a0 0 0 0 1 0 0h-23a1 1 0 0 1 -1-1 1 1 0 0 1 1-1z" fill="#93999a"></path><path d="m57 34h-4v-6a21 21 0 0 0 -42 0v6h-4v-6a25 25 0 0 1 50 0z" fill="#4891d3"></path><path d="m32 3a24.84 24.84 0 0 0 -12.148 3.161 24.984 24.984 0 0 1 35.148 22.839v5h2v-6a25.028 25.028 0 0 0 -25-25z" fill="#57b7eb"></path><path d="m49 26h2a4 4 0 0 1 4 4v14a4 4 0 0 1 -4 4h-2a0 0 0 0 1 0 0v-22a0 0 0 0 1 0 0z" fill="#f9e109"></path><path d="m55 30h2a4 4 0 0 1 4 4v6a4 4 0 0 1 -4 4h-2a0 0 0 0 1 0 0v-14a0 0 0 0 1 0 0z" fill="#f9e109"></path><path d="m9 26h2a4 4 0 0 1 4 4v14a4 4 0 0 1 -4 4h-2a0 0 0 0 1 0 0v-22a0 0 0 0 1 0 0z" fill="#f9e109" transform="matrix(-1 0 0 -1 24 74)"></path><path d="m3 30h2a4 4 0 0 1 4 4v6a4 4 0 0 1 -4 4h-2a0 0 0 0 1 0 0v-14a0 0 0 0 1 0 0z" fill="#fcbc04" transform="matrix(-1 0 0 -1 12 74)"></path><path d="m57 37v-7h-2v14h2a3.991 3.991 0 0 0 3.863-3.014 3.993 3.993 0 0 1 -3.863-3.986z" fill="#fcbc04"></path><path d="m51 41v-15h-2v22h2a3.991 3.991 0 0 0 3.863-3.014 3.993 3.993 0 0 1 -3.863-3.986z" fill="#fcbc04"></path><path d="m11 41v-14.445a3.982 3.982 0 0 0 -2 3.445v14a4 4 0 0 0 4 4h2v-3a4 4 0 0 1 -4-4z" fill="#fcbc04"></path><path d="m7 37v-7h2v14h-2a3.991 3.991 0 0 1 -3.863-3.014 3.993 3.993 0 0 0 3.863-3.986z" fill="#e59730"></path><path d="m26 40h-3v4h3l3 2v-8z" fill="#f9e109"></path><path d="m23 44h2.7a11.966 11.966 0 0 1 -.7-4h-2z" fill="#fcbc04"></path><path d="m24 40h-1v4h3l3 2v-3h-2a3 3 0 0 1 -3-3z" fill="#fcbc04"></path><path d="m24 40h-1v4h2.7a12.43 12.43 0 0 1 -.429-1.558 2.989 2.989 0 0 1 -1.271-2.442z" fill="#e59730"></path><g fill="#323232"><path d="m45 52a1 1 0 0 0 -1 1v3h-22a2 2 0 0 1 -2-2v-20a1 1 0 0 0 -2 0v20a4 4 0 0 0 4 4h23a1 1 0 0 0 1-1v-4a1 1 0 0 0 -1-1z"></path><path d="m45 19h-23a4 4 0 0 0 -4 4v7a1 1 0 0 0 2 0v-3.556a3.959 3.959 0 0 0 2 .556h22v22a1 1 0 0 0 2 0v-29a1 1 0 0 0 -1-1zm-25 4a2 2 0 0 1 2-2h22v4h-22a2 2 0 0 1 -2-2z"></path><path d="m23 39a1 1 0 0 0 -1 1v4a1 1 0 0 0 1 1h2.7l2.748 1.832a1 1 0 0 0 1.552-.832v-8a1 1 0 0 0 -1.555-.832l-2.745 1.832zm3.555 1.832 1.445-.963v4.262l-1.445-.963a1.006 1.006 0 0 0 -.555-.168h-2v-2h2a1.006 1.006 0 0 0 .555-.168z"></path><path d="m52.369 22.958a1 1 0 0 0 .672-1.244 21.945 21.945 0 0 0 -42.083 0 1 1 0 0 0 .672 1.244.987.987 0 0 0 .287.042 1 1 0 0 0 .958-.714 19.945 19.945 0 0 1 38.25 0 1 1 0 0 0 1.244.672z"></path><path d="m58 29.1v-1.1a26 26 0 0 0 -52 0v1.1a5.009 5.009 0 0 0 -4 4.9v6a5.006 5.006 0 0 0 5 5h1.1a5.009 5.009 0 0 0 4.9 4h2a1 1 0 0 0 1-1v-3a1 1 0 0 0 -2 0v2h-1a3 3 0 0 1 -3-3v-14a3 3 0 0 1 3-3h1v14a1 1 0 0 0 2 0v-15a1 1 0 0 0 -1-1h-2a5.009 5.009 0 0 0 -4.9 4h-.1v-1a24 24 0 0 1 48 0v1h-.1a5.009 5.009 0 0 0 -4.9-4h-2a1 1 0 0 0 -1 1v3a1 1 0 0 0 2 0v-2h1a3 3 0 0 1 3 3v14a3 3 0 0 1 -3 3h-1v-14a1 1 0 0 0 -2 0v15a1 1 0 0 0 1 1h2a5.009 5.009 0 0 0 4.9-4h1.1a5.006 5.006 0 0 0 5-5v-6a5.009 5.009 0 0 0 -4-4.9zm-54 10.9v-6a3 3 0 0 1 3-3h1v12h-1a3 3 0 0 1 -3-3zm56 0a3 3 0 0 1 -3 3h-1v-12h1a3 3 0 0 1 3 3z"></path><path d="m39.7 47.516a1 1 0 0 0 1.307-.541 12.923 12.923 0 0 0 0-9.95 1 1 0 0 0 -1.848.765 10.934 10.934 0 0 1 0 8.42 1 1 0 0 0 .541 1.306z"></path><path d="m36.391 46.062a1 1 0 0 0 .923-.618 8.931 8.931 0 0 0 0-6.888 1 1 0 1 0 -1.847.765 6.951 6.951 0 0 1 0 5.358 1 1 0 0 0 .924 1.383z"></path><path d="m32.312 44.455a1.014 1.014 0 0 0 .383.076 1 1 0 0 0 .924-.617 4.969 4.969 0 0 0 0-3.827 1 1 0 1 0 -1.848.765 2.977 2.977 0 0 1 0 2.3 1 1 0 0 0 .541 1.303z"></path><path d="m28 52a1 1 0 0 0 1 1h6a1 1 0 0 0 0-2h-6a1 1 0 0 0 -1 1z"></path><path d="m35 31h-6a1 1 0 0 0 0 2h6a1 1 0 0 0 0-2z"></path></g></g></svg> 