<?xml version="1.0" encoding="UTF-8"?> <svg xmlns="http://www.w3.org/2000/svg" id="Layer_1" height="512" viewBox="0 0 128 128" width="512"><path d="m103.583 9.211h-75.166c-3.555 0-6.447 2.892-6.447 6.447v100.685c0 3.555 2.892 6.447 6.447 6.447h75.166c3.555 0 6.447-2.892 6.447-6.447v-100.685c-.001-3.555-2.893-6.447-6.447-6.447z" fill="#e6e7e8"></path><path d="m99.583 6.211h-75.166c-3.008 0-5.447 2.439-5.447 5.447v100.685c0 3.008 2.439 5.447 5.447 5.447h75.166c3.008 0 5.447-2.439 5.447-5.447v-100.685c0-3.008-2.439-5.447-5.447-5.447z" fill="#0089ef"></path><path d="m99.583 118.789h-75.166c-3.555 0-6.447-2.892-6.447-6.447v-100.684c0-3.555 2.892-6.447 6.447-6.447h75.166c3.555 0 6.447 2.892 6.447 6.447v100.685c0 3.554-2.892 6.446-6.447 6.446zm-75.166-111.578c-2.452 0-4.447 1.995-4.447 4.447v100.685c0 2.452 1.995 4.447 4.447 4.447h75.166c2.452 0 4.447-1.995 4.447-4.447v-100.685c0-2.452-1.995-4.447-4.447-4.447z" fill="#3a2c60"></path><path d="m24.417 99.628v-80.247c0-1.105.895-2 2-2h71.166c1.105 0 2 .895 2 2v80.246c0 1.105-.895 2-2 2h-71.166c-1.104.001-2-.895-2-1.999z" fill="#d4fbff"></path><path d="m69.357 9.993h-14.714c-1.074 0-1.944.87-1.944 1.944s.87 1.944 1.944 1.944h14.714c1.074 0 1.944-.87 1.944-1.944 0-1.073-.87-1.944-1.944-1.944z" fill="#6dc9f7"></path><path d="m74.648 9.994c-1.074 0-1.944.87-1.944 1.944s.87 1.944 1.944 1.944 1.944-.87 1.944-1.944-.871-1.944-1.944-1.944z" fill="#6dc9f7"></path><path d="m62 105.896c-1.84 0-3.332 1.492-3.332 3.332s1.492 3.332 3.332 3.332 3.332-1.492 3.332-3.332c0-1.841-1.492-3.332-3.332-3.332z" fill="#6dc9f7"></path><path d="m80.224 6.211v31.037c0 1.106 1.314 1.686 2.131.94l5.195-4.743 5.195 4.743c.817.746 2.131.166 2.131-.94v-31.037z" fill="#fa759e"></path><path d="m80.224 6.211h14.653v3h-14.653z" fill="#fff"></path><g fill="#3a2c60"><path d="m81.506 39.525c-.311 0-.625-.065-.927-.198-.836-.369-1.356-1.166-1.356-2.08v-31.036c0-.552.448-1 1-1h14.653c.552 0 1 .448 1 1v13.789c0 .552-.448 1-1 1s-1-.448-1-1v-12.789h-12.652v30.037c0 .147.088.217.163.25.074.033.185.051.294-.048l5.195-4.743c.382-.349.967-.35 1.349 0l5.195 4.743c.108.099.221.081.294.048.074-.033.163-.103.163-.25v-6.123c0-.552.448-1 1-1s1 .448 1 1v6.123c0 .914-.52 1.711-1.356 2.08-.836.368-1.775.216-2.45-.401l-4.521-4.127-4.521 4.127c-.431.394-.971.598-1.523.598z"></path><path d="m94.876 28.625c-.552 0-1-.448-1-1v-4c0-.552.448-1 1-1s1 .448 1 1v4c0 .552-.447 1-1 1z"></path><path d="m71.522 32.121h-16.012c-.552 0-1-.448-1-1s.448-1 1-1h16.012c.552 0 1 .448 1 1s-.448 1-1 1z"></path><path d="m71.522 43.802h-16.012c-.552 0-1-.448-1-1s.448-1 1-1h16.012c.552 0 1 .448 1 1s-.448 1-1 1z"></path><path d="m90.277 55.484h-56.554c-.552 0-1-.448-1-1s.448-1 1-1h56.554c.552 0 1 .448 1 1s-.448 1-1 1z"></path><path d="m90.277 67.166h-56.554c-.552 0-1-.448-1-1s.448-1 1-1h56.554c.552 0 1 .448 1 1s-.448 1-1 1z"></path><path d="m90.277 78.847h-56.554c-.552 0-1-.448-1-1s.448-1 1-1h56.554c.552 0 1 .448 1 1s-.448 1-1 1z"></path><path d="m90.277 90.529h-56.554c-.552 0-1-.448-1-1s.448-1 1-1h56.554c.552 0 1 .448 1 1s-.448 1-1 1z"></path><path d="m44.689 42.162-.687-1.804h-5.844l-.686 1.844c-.268.719-.497 1.205-.687 1.456s-.5.377-.932.377c-.366 0-.689-.134-.971-.402-.281-.268-.421-.572-.421-.912 0-.196.032-.398.098-.608.065-.209.173-.5.324-.873l3.677-9.335c.104-.268.23-.59.377-.966s.304-.688.471-.937.386-.45.657-.603c.271-.154.606-.23 1.005-.23.405 0 .744.077 1.015.23s.49.351.657.593.307.501.421.779.26.649.437 1.113l3.755 9.276c.294.706.441 1.219.441 1.54 0 .333-.139.639-.417.917-.278.277-.613.417-1.005.417-.229 0-.425-.041-.588-.123-.164-.082-.301-.193-.412-.333-.111-.141-.23-.356-.358-.647s-.235-.546-.327-.769zm-5.765-3.991h4.295l-2.167-5.933z"></path></g></svg> 